<mxfile host="app.diagrams.net" agent="Mozilla/5.0 (Windows NT 10.0; Win64; x64) AppleWebKit/537.36 (KHTML, like Gecko) Chrome/130.0.0.0 Safari/537.36" version="24.8.1">
  <diagram name="Page-1" id="e7e014a7-5840-1c2e-5031-d8a46d1fe8dd">
    <mxGraphModel dx="1434" dy="778" grid="1" gridSize="10" guides="1" tooltips="1" connect="1" arrows="1" fold="1" page="1" pageScale="1" pageWidth="1169" pageHeight="826" background="none" math="0" shadow="0">
      <root>
        <mxCell id="0" />
        <mxCell id="1" parent="0" />
        <mxCell id="2" value="User" style="swimlane;whiteSpace=wrap" parent="1" vertex="1">
          <mxGeometry x="164.5" y="128" width="280" height="570" as="geometry" />
        </mxCell>
        <mxCell id="sG0y0ggbUeyNrb39tFqu-42" value="" style="edgeStyle=orthogonalEdgeStyle;rounded=0;orthogonalLoop=1;jettySize=auto;html=1;" edge="1" parent="2" source="5" target="sG0y0ggbUeyNrb39tFqu-41">
          <mxGeometry relative="1" as="geometry" />
        </mxCell>
        <mxCell id="5" value="" style="ellipse;shape=startState;fillColor=#d5e8d4;strokeColor=#82b366;" parent="2" vertex="1">
          <mxGeometry x="125" y="40" width="30" height="30" as="geometry" />
        </mxCell>
        <mxCell id="sG0y0ggbUeyNrb39tFqu-41" value="User clicks on register account" style="rounded=1;whiteSpace=wrap;html=1;" vertex="1" parent="2">
          <mxGeometry x="80.5" y="102" width="120" height="60" as="geometry" />
        </mxCell>
        <mxCell id="sG0y0ggbUeyNrb39tFqu-45" value="User fills out forms" style="rounded=1;whiteSpace=wrap;html=1;" vertex="1" parent="2">
          <mxGeometry x="80.5" y="202" width="120" height="60" as="geometry" />
        </mxCell>
        <mxCell id="sG0y0ggbUeyNrb39tFqu-50" value="" style="endArrow=none;html=1;rounded=0;entryX=0.5;entryY=1;entryDx=0;entryDy=0;" edge="1" parent="2" target="sG0y0ggbUeyNrb39tFqu-45">
          <mxGeometry width="50" height="50" relative="1" as="geometry">
            <mxPoint x="140.5" y="302" as="sourcePoint" />
            <mxPoint x="175.5" y="322" as="targetPoint" />
          </mxGeometry>
        </mxCell>
        <mxCell id="sG0y0ggbUeyNrb39tFqu-51" value="" style="endArrow=classic;html=1;rounded=0;entryX=0;entryY=0.5;entryDx=0;entryDy=0;" edge="1" parent="2" target="sG0y0ggbUeyNrb39tFqu-49">
          <mxGeometry width="50" height="50" relative="1" as="geometry">
            <mxPoint x="141" y="302" as="sourcePoint" />
            <mxPoint x="255.5" y="282" as="targetPoint" />
          </mxGeometry>
        </mxCell>
        <mxCell id="sG0y0ggbUeyNrb39tFqu-56" value="" style="endArrow=none;html=1;rounded=0;" edge="1" parent="2">
          <mxGeometry width="50" height="50" relative="1" as="geometry">
            <mxPoint x="45.5" y="392" as="sourcePoint" />
            <mxPoint x="45.5" y="232" as="targetPoint" />
          </mxGeometry>
        </mxCell>
        <mxCell id="sG0y0ggbUeyNrb39tFqu-57" value="" style="endArrow=classic;html=1;rounded=0;entryX=0;entryY=0.5;entryDx=0;entryDy=0;" edge="1" parent="2" target="sG0y0ggbUeyNrb39tFqu-45">
          <mxGeometry width="50" height="50" relative="1" as="geometry">
            <mxPoint x="45.5" y="232" as="sourcePoint" />
            <mxPoint x="95.5" y="192" as="targetPoint" />
          </mxGeometry>
        </mxCell>
        <mxCell id="3" value="Webapp" style="swimlane;whiteSpace=wrap;startSize=23;" parent="1" vertex="1">
          <mxGeometry x="444.5" y="128" width="280" height="570" as="geometry" />
        </mxCell>
        <mxCell id="sG0y0ggbUeyNrb39tFqu-43" value="Show forms to fill" style="rounded=1;whiteSpace=wrap;html=1;" vertex="1" parent="3">
          <mxGeometry x="80.5" y="102" width="120" height="60" as="geometry" />
        </mxCell>
        <mxCell id="sG0y0ggbUeyNrb39tFqu-47" value="" style="endArrow=none;html=1;rounded=0;entryX=0.5;entryY=1;entryDx=0;entryDy=0;" edge="1" parent="3" target="sG0y0ggbUeyNrb39tFqu-43">
          <mxGeometry width="50" height="50" relative="1" as="geometry">
            <mxPoint x="140.5" y="232" as="sourcePoint" />
            <mxPoint x="175.5" y="212" as="targetPoint" />
          </mxGeometry>
        </mxCell>
        <mxCell id="sG0y0ggbUeyNrb39tFqu-48" value="" style="endArrow=classic;html=1;rounded=0;entryX=1;entryY=0.5;entryDx=0;entryDy=0;" edge="1" parent="3" target="sG0y0ggbUeyNrb39tFqu-45">
          <mxGeometry width="50" height="50" relative="1" as="geometry">
            <mxPoint x="140" y="232" as="sourcePoint" />
            <mxPoint x="115.5" y="232" as="targetPoint" />
          </mxGeometry>
        </mxCell>
        <mxCell id="sG0y0ggbUeyNrb39tFqu-53" value="" style="edgeStyle=orthogonalEdgeStyle;rounded=0;orthogonalLoop=1;jettySize=auto;html=1;" edge="1" parent="3" source="sG0y0ggbUeyNrb39tFqu-49" target="sG0y0ggbUeyNrb39tFqu-52">
          <mxGeometry relative="1" as="geometry" />
        </mxCell>
        <mxCell id="sG0y0ggbUeyNrb39tFqu-49" value="Verify if forms are filled" style="rounded=1;whiteSpace=wrap;html=1;" vertex="1" parent="3">
          <mxGeometry x="80.5" y="272" width="120" height="60" as="geometry" />
        </mxCell>
        <mxCell id="sG0y0ggbUeyNrb39tFqu-52" value="Are they filled correctly?" style="rhombus;whiteSpace=wrap;html=1;" vertex="1" parent="3">
          <mxGeometry x="110.25" y="362" width="59.5" height="58" as="geometry" />
        </mxCell>
        <mxCell id="sG0y0ggbUeyNrb39tFqu-55" value="" style="endArrow=none;html=1;rounded=0;exitX=0;exitY=0.5;exitDx=0;exitDy=0;" edge="1" parent="3" source="sG0y0ggbUeyNrb39tFqu-52">
          <mxGeometry width="50" height="50" relative="1" as="geometry">
            <mxPoint x="45.5" y="432" as="sourcePoint" />
            <mxPoint x="-234.5" y="392" as="targetPoint" />
          </mxGeometry>
        </mxCell>
        <mxCell id="sG0y0ggbUeyNrb39tFqu-58" value="NO" style="edgeLabel;html=1;align=center;verticalAlign=middle;resizable=0;points=[];fontSize=13;" vertex="1" connectable="0" parent="sG0y0ggbUeyNrb39tFqu-55">
          <mxGeometry x="0.4604" y="-4" relative="1" as="geometry">
            <mxPoint as="offset" />
          </mxGeometry>
        </mxCell>
        <mxCell id="4" value="Database" style="swimlane;whiteSpace=wrap;startSize=23;" parent="1" vertex="1">
          <mxGeometry x="724.5" y="128" width="280" height="570" as="geometry" />
        </mxCell>
        <mxCell id="sG0y0ggbUeyNrb39tFqu-64" value="" style="edgeStyle=orthogonalEdgeStyle;rounded=0;orthogonalLoop=1;jettySize=auto;html=1;" edge="1" parent="4" source="sG0y0ggbUeyNrb39tFqu-59" target="sG0y0ggbUeyNrb39tFqu-63">
          <mxGeometry relative="1" as="geometry" />
        </mxCell>
        <mxCell id="sG0y0ggbUeyNrb39tFqu-59" value="Store user information" style="rounded=1;whiteSpace=wrap;html=1;" vertex="1" parent="4">
          <mxGeometry x="80" y="361" width="120" height="60" as="geometry" />
        </mxCell>
        <mxCell id="sG0y0ggbUeyNrb39tFqu-63" value="" style="ellipse;html=1;shape=endState;fillColor=#000000;strokeColor=#ff0000;" vertex="1" parent="4">
          <mxGeometry x="125.5" y="492" width="30" height="30" as="geometry" />
        </mxCell>
        <mxCell id="sG0y0ggbUeyNrb39tFqu-44" value="" style="endArrow=classic;html=1;rounded=0;exitX=1;exitY=0.5;exitDx=0;exitDy=0;entryX=0;entryY=0.5;entryDx=0;entryDy=0;" edge="1" parent="1" source="sG0y0ggbUeyNrb39tFqu-41" target="sG0y0ggbUeyNrb39tFqu-43">
          <mxGeometry width="50" height="50" relative="1" as="geometry">
            <mxPoint x="450" y="290" as="sourcePoint" />
            <mxPoint x="500" y="240" as="targetPoint" />
          </mxGeometry>
        </mxCell>
        <mxCell id="sG0y0ggbUeyNrb39tFqu-60" value="" style="endArrow=classic;html=1;rounded=0;exitX=1;exitY=0.5;exitDx=0;exitDy=0;entryX=0;entryY=0.5;entryDx=0;entryDy=0;" edge="1" parent="1" source="sG0y0ggbUeyNrb39tFqu-52" target="sG0y0ggbUeyNrb39tFqu-59">
          <mxGeometry width="50" height="50" relative="1" as="geometry">
            <mxPoint x="690" y="550" as="sourcePoint" />
            <mxPoint x="740" y="500" as="targetPoint" />
          </mxGeometry>
        </mxCell>
      </root>
    </mxGraphModel>
  </diagram>
</mxfile>
